<svg width="14" height="14" viewBox="0 0 14 14" fill="none" xmlns="http://www.w3.org/2000/svg">
<g filter="url(#filter0_d)">
<path fill-rule="evenodd" clip-rule="evenodd" d="M2 1C1.44772 1 1 1.44771 1 2V11C1 11.5523 1.44771 12 2 12H11C11.5523 12 12 11.5523 12 11V2C12 1.44772 11.5523 1 11 1H2ZM2 3L5.43934 6.43934L1.93934 9.93933L3 11L6.5 7.5L9.99999 11L11.0607 9.93933L7.56066 6.43934L11 3L9.93933 1.93934L6.5 5.37868L3.06066 1.93934L2 3Z" fill="#00FFFF"/>
</g>
<defs>
<filter id="filter0_d" x="0.5" y="0.5" width="13" height="13" filterUnits="userSpaceOnUse" color-interpolation-filters="sRGB">
<feFlood flood-opacity="0" result="BackgroundImageFix"/>
<feColorMatrix in="SourceAlpha" type="matrix" values="0 0 0 0 0 0 0 0 0 0 0 0 0 0 0 0 0 0 127 0"/>
<feOffset dx="0.5" dy="0.5"/>
<feGaussianBlur stdDeviation="0.5"/>
<feColorMatrix type="matrix" values="0 0 0 0 0 0 0 0 0 0 0 0 0 0 0 0 0 0 0.75 0"/>
<feBlend mode="normal" in2="BackgroundImageFix" result="effect1_dropShadow"/>
<feBlend mode="normal" in="SourceGraphic" in2="effect1_dropShadow" result="shape"/>
</filter>
</defs>
</svg>
